Coordinates
version=1
nRows=17
nColumns=24
inDegrees=yes

Units are S.I. units (second, meters, Newtons, ...)
Angles are in degrees.

endheader
time	pelvis_tilt	pelvis_list	pelvis_rotation	pelvis_tx	pelvis_ty	pelvis_tz	hip_flexion_r	hip_adduction_r	hip_rotation_r	knee_angle_r	ankle_angle_r	subtalar_angle_r	mtp_angle_r	hip_flexion_l	hip_adduction_l	hip_rotation_l	knee_angle_l	ankle_angle_l	subtalar_angle_l	mtp_angle_l	lumbar_extension	lumbar_bending	lumbar_rotation
      0.80833333	      1.64845043	     -1.75007241	     -3.21210213	     -0.48213153	      1.07216951	      0.33779752	      6.91503884	      6.42714965	     -1.98846880	    -11.20188619	      0.24080956	     -7.56759486	      6.78224168	     11.82121056	     -3.15576874	     -3.56074679	    -64.58721999	     -1.98635583	     -5.38995272	     22.39838787	      0.99935442	      5.83268693	     -0.16499023
      0.81250000	      1.66716398	     -1.72644124	     -3.23603606	     -0.47702511	      1.07275340	      0.33813546	      6.52123940	      6.42664008	     -1.79849787	    -11.05993069	      0.37609757	     -7.58542257	      6.78395187	     12.38165305	     -3.15742390	     -3.40530326	    -64.47773827	     -1.49202483	     -5.66951843	     22.27162408	      0.92361673	      5.72979307	     -0.06796489
      0.81666667	      1.69551605	     -1.67117402	     -3.30031062	     -0.47194112	      1.07334744	      0.33836473	      6.13283713	      6.37695924	     -1.62535653	    -10.95405456	      0.55133124	     -7.64856959	      6.78446884	     12.90656744	     -3.10758864	     -3.28176026	    -64.28782605	     -0.88754642	     -5.99120584	     22.13476856	      0.85075882	      5.65543911	      0.03409118
      0.82083333	      1.72430104	     -1.61450360	     -3.37629885	     -0.46683459	      1.07393857	      0.33862239	      5.73962817	      6.32788213	     -1.44752567	    -10.84328704	      0.71907207	     -7.71150833	      6.78375300	     13.40873590	     -3.05846865	     -3.17369373	    -64.02510339	     -0.33780626	     -6.26490479	     21.98440046	      0.77837519	      5.58380536	      0.14647231
      0.82500000	      1.74871563	     -1.55654479	     -3.44382702	     -0.46175499	      1.07449807	      0.33886718	      5.34985997	      6.27609128	     -1.26428216	    -10.72144568	      0.87771977	     -7.76710576	      6.78219466	     13.90559186	     -3.00366464	     -3.05754023	    -63.69941947	      0.15712453	     -6.50133705	     21.84419273	      0.70736089	      5.49354107	      0.25642633
      0.82916667	      1.77932992	     -1.49828519	     -3.52700030	     -0.45665347	      1.07506783	      0.33911288	      4.94889814	      6.22269632	     -1.07798855	    -10.59782870	      1.04319794	     -7.83416219	      6.77904208	     14.37111737	     -2.94816134	     -2.95860273	    -63.30256844	      0.65177366	     -6.72301070	     21.68940387	      0.63705233	      5.42392125	      0.37337584
      0.83333333	      1.82337239	     -1.43615007	     -3.61949381	     -0.45156928	      1.07563215	      0.33936197	      4.53428285	      6.16241121	     -0.88489201	    -10.47424430	      1.20932925	     -7.90473151	      6.77396682	     14.80241785	     -2.88779312	     -2.86997240	    -62.83762026	      1.12623103	     -6.92004007	     21.51134748	      0.54415338	      5.34059331	      0.50454997
      0.83750000	      1.85667530	     -1.38344918	     -3.69016399	     -0.44647922	      1.07615425	      0.33960241	      4.12112680	      6.11384531	     -0.69689593	    -10.32570199	      1.35729647	     -7.96682800	      6.76788070	     15.23521907	     -2.83467858	     -2.76318014	    -62.31684004	      1.52635651	     -7.08125670	     21.34610593	      0.46386442	      5.26288643	      0.62419271
      0.84166667	      1.89625281	     -1.32810185	     -3.77308475	     -0.44137720	      1.07667829	      0.33982369	      3.70091444	      6.05815995	     -0.51211422	    -10.17889686	      1.50727691	     -8.03350134	      6.76042221	     15.63601744	     -2.77504606	     -2.66953508	    -61.72523416	      1.91675440	     -7.24183896	     21.18262874	      0.38802996	      5.18882618	      0.73990703
      0.84583333	      1.88027838	     -1.26701980	     -3.83889468	     -0.43632049	      1.07708129	      0.33988972	      3.35321777	      5.98313934	     -0.39804952	    -10.05058800	      1.57466976	     -8.05821177	      6.75738945	     16.09174181	     -2.69117461	     -2.53567722	    -61.07266746	      2.09487675	     -7.30898390	     21.12431653	      0.29003386	      5.17941946	      0.77520930
      0.85000000	      1.94791549	     -1.23210293	     -3.92158492	     -0.43115817	      1.07760637	      0.34022914	      2.87613744	      5.95905135	     -0.17428399	     -9.85880635	      1.78226566	     -8.14494692	      6.74817370	     16.41595971	     -2.66616128	     -2.46917838	    -60.36404728	      2.56846298	     -7.53688941	     20.96454339	      0.27626451	      5.04370572	      0.91064307
      0.85416667	      1.99361671	     -1.18127464	     -4.01753302	     -0.42605561	      1.07807439	      0.34044302	      2.43579432	      5.90168294	      0.02698423	     -9.68567702	      1.93478834	     -8.22500191	      6.73558389	     16.74814307	     -2.60986077	     -2.39669494	    -59.58434491	      2.89104740	     -7.69482708	     20.78296727	      0.17323908	      4.97863829	      1.04034860
      0.85833333	      1.95957644	     -1.14256805	     -4.07608626	     -0.42102369	      1.07835808	      0.34048980	      2.09998426	      5.85051583	      0.12218471	     -9.53776643	      1.99238171	     -8.24788546	      6.73133546	     17.17142991	     -2.54748000	     -2.26524741	    -58.76704273	      3.02270559	     -7.75214704	     20.72617327	      0.06277968	      4.99121261	      1.07093428
      0.86250000	      2.09073737	     -1.09584662	     -4.23469045	     -0.41593499	      1.07891460	      0.34084715	      1.55883182	      5.79622599	      0.38830072	     -9.35138904	      2.22415493	     -8.40918469	      6.70164587	     17.34972675	     -2.51630990	     -2.29299526	    -57.85350426	      3.41286314	     -8.07259585	     20.37552203	     -0.14046222	      4.85223301	      1.31293140
      0.86666667	      2.23223788	     -1.04852974	     -4.32931278	     -0.41079613	      1.07945728	      0.34104819	      0.99317003	      5.72726881	      0.56406271	     -9.13140076	      2.32095065	     -8.53829470	      6.63937184	     17.50312938	     -2.45305558	     -2.24050002	    -56.86379337	      3.51078387	     -8.34380219	     19.70625947	     -0.34977557	      4.79089379	      1.65971410
      0.87083333	      2.19101534	     -1.06464224	     -4.31920506	     -0.40568940	      1.07963472	      0.34112184	      0.61750487	      5.74294718	      0.68940641	     -8.89594744	      2.36992859	     -8.51389756	      6.62867325	     17.87984961	     -2.44793055	     -2.06386671	    -55.89553503	      3.61868165	     -8.41152774	     19.58717429	     -0.31912696	      4.84483555	      1.68601085
      0.87500000	      2.23802551	     -1.02434046	     -4.44401899	     -0.40056867	      1.07996114	      0.34130295	      0.16595089	      5.67996550	      0.85528846	     -8.70508412	      2.54114009	     -8.58796345	      6.58174928	     18.09671291	     -2.40276819	     -2.05115059	    -54.81305878	      3.75628229	     -8.79967344	     19.12144447	     -0.47018178	      4.72559666	      1.81040308
